<svg width="30" height="30" viewBox="0 0 30 30" fill="none" xmlns="http://www.w3.org/2000/svg">
<rect x="1" y="1" width="28" height="28" rx="14" fill="#4F4F4F" stroke="#4F4F4F" stroke-width="2"/>
<g clip-path="url(#clip0_694_2544)">
<path d="M21.7215 17.2786H8.27848C7.02076 17.2786 6 16.2579 6 15.0002C6 13.7424 7.02076 12.7217 8.27848 12.7217H21.7215C22.9792 12.7217 24 13.7424 24 15.0002C24 16.2579 22.9792 17.2786 21.7215 17.2786Z" fill="white"/>
<path d="M15.0002 24C13.7424 24 12.7217 22.9792 12.7217 21.7215V8.27848C12.7217 7.02076 13.7424 6 15.0002 6C16.2579 6 17.2786 7.02076 17.2786 8.27848V21.7215C17.2786 22.9792 16.2579 24 15.0002 24Z" fill="white"/>
</g>
<defs>
<clipPath id="clip0_694_2544">
<rect width="18" height="18" fill="white" transform="translate(6 6)"/>
</clipPath>
</defs>
</svg>
