<svg width="27" height="27" viewBox="0 0 27 27" fill="none" xmlns="http://www.w3.org/2000/svg">
<circle cx="13.1448" cy="13.1448" r="9.5921" fill="white"/>
<path d="M13.5 0C6.04487 0 0 6.04487 0 13.5C0 20.9551 6.04487 27 13.5 27C20.9551 27 27 20.9551 27 13.5C27 6.04487 20.9551 0 13.5 0ZM12.5357 6.99107C12.5357 6.85848 12.6442 6.75 12.7768 6.75H14.2232C14.3558 6.75 14.4643 6.85848 14.4643 6.99107V15.1875C14.4643 15.3201 14.3558 15.4286 14.2232 15.4286H12.7768C12.6442 15.4286 12.5357 15.3201 12.5357 15.1875V6.99107ZM13.5 20.25C13.1215 20.2423 12.7611 20.0865 12.4961 19.8161C12.2312 19.5457 12.0828 19.1822 12.0828 18.8036C12.0828 18.425 12.2312 18.0615 12.4961 17.7911C12.7611 17.5207 13.1215 17.3649 13.5 17.3571C13.8785 17.3649 14.2389 17.5207 14.5039 17.7911C14.7688 18.0615 14.9172 18.425 14.9172 18.8036C14.9172 19.1822 14.7688 19.5457 14.5039 19.8161C14.2389 20.0865 13.8785 20.2423 13.5 20.25Z" fill="#FEB100"/>
</svg>
