<svg width="23" height="24" viewBox="0 0 23 24" fill="none" xmlns="http://www.w3.org/2000/svg">
<g clip-path="url(#clip0_681_2959)">
<path d="M19.0412 3.08594H3.95879C1.77241 3.08594 0 4.82972 0 6.98079V20.1054C0 22.2564 1.77241 24.0002 3.95879 24.0002H19.0412C21.2276 24.0002 23 22.2564 23 20.1054V6.98079C23 4.82972 21.2276 3.08594 19.0412 3.08594Z" fill="white"/>
<path d="M19.0412 4.11451C20.6477 4.11451 21.9545 5.40022 21.9545 6.98079V20.1054C21.9545 21.6859 20.6477 22.9717 19.0412 22.9717H3.95879C2.35227 22.9717 1.04545 21.6859 1.04545 20.1054V6.98079C1.04545 5.40022 2.35227 4.11451 3.95879 4.11451H19.0412ZM19.0412 3.08594H3.95879C1.77379 3.08594 0 4.83108 0 6.98079V20.1054C0 22.2585 1.77379 24.0002 3.95879 24.0002H19.0412C21.2297 24.0002 23 22.2551 23 20.1054V6.98079C23 4.82765 21.2262 3.08594 19.0412 3.08594Z" fill="#00A69C"/>
<path d="M23 8.91443H0V7.32357C0 5.17043 1.77379 3.42871 3.95879 3.42871H19.0412C21.2297 3.42871 23 5.17385 23 7.32357V8.91443Z" fill="#00A69C"/>
<path d="M4.96591 7.1998C5.63953 7.1998 6.18561 6.66255 6.18561 5.9998C6.18561 5.33706 5.63953 4.7998 4.96591 4.7998C4.29229 4.7998 3.74622 5.33706 3.74622 5.9998C3.74622 6.66255 4.29229 7.1998 4.96591 7.1998Z" fill="white"/>
<path d="M11.4129 7.1998C12.0866 7.1998 12.6326 6.66255 12.6326 5.9998C12.6326 5.33706 12.0866 4.7998 11.4129 4.7998C10.7393 4.7998 10.1932 5.33706 10.1932 5.9998C10.1932 6.66255 10.7393 7.1998 11.4129 7.1998Z" fill="white"/>
<path d="M17.6856 7.1998C18.3593 7.1998 18.9053 6.66255 18.9053 5.9998C18.9053 5.33706 18.3593 4.7998 17.6856 4.7998C17.012 4.7998 16.4659 5.33706 16.4659 5.9998C16.4659 6.66255 17.012 7.1998 17.6856 7.1998Z" fill="white"/>
<path d="M5.66286 0.685714C5.66286 0.307005 5.35082 0 4.96589 0C4.58096 0 4.26892 0.307005 4.26892 0.685714V5.82857C4.26892 6.20728 4.58096 6.51429 4.96589 6.51429C5.35082 6.51429 5.66286 6.20728 5.66286 5.82857V0.685714Z" fill="#00A69C"/>
<path d="M12.1099 0.685714C12.1099 0.307005 11.7978 0 11.4129 0C11.028 0 10.7159 0.307005 10.7159 0.685714V5.82857C10.7159 6.20728 11.028 6.51429 11.4129 6.51429C11.7978 6.51429 12.1099 6.20728 12.1099 5.82857V0.685714Z" fill="#00A69C"/>
<path d="M18.3826 0.685714C18.3826 0.307005 18.0705 0 17.6856 0C17.3007 0 16.9886 0.307005 16.9886 0.685714V5.82857C16.9886 6.20728 17.3007 6.51429 17.6856 6.51429C18.0705 6.51429 18.3826 6.20728 18.3826 5.82857V0.685714Z" fill="#00A69C"/>
<path d="M10.3396 10.9712H8.24866V13.0283H10.3396V10.9712Z" fill="#00A69C"/>
<path d="M14.7513 10.9712H12.6604V13.0283H14.7513V10.9712Z" fill="#00A69C"/>
<path d="M19.1667 10.9712H17.0758V13.0283H19.1667V10.9712Z" fill="#00A69C"/>
<path d="M5.92428 14.7427H3.83337V16.7998H5.92428V14.7427Z" fill="#00A69C"/>
<path d="M10.3396 14.7427H8.24866V16.7998H10.3396V14.7427Z" fill="#00A69C"/>
<path d="M14.7513 14.7427H12.6604V16.7998H14.7513V14.7427Z" fill="#00A69C"/>
<path d="M19.1667 14.7427H17.0758V16.7998H19.1667V14.7427Z" fill="#00A69C"/>
<path d="M5.92428 18.5142H3.83337V20.5713H5.92428V18.5142Z" fill="#00A69C"/>
<path d="M10.3396 18.5142H8.24866V20.5713H10.3396V18.5142Z" fill="#00A69C"/>
<path d="M14.7513 18.5142H12.6604V20.5713H14.7513V18.5142Z" fill="#00A69C"/>
<path d="M19.1667 18.5142H17.0758V20.5713H19.1667V18.5142Z" fill="#00A69C"/>
</g>
<defs>
<clipPath id="clip0_681_2959">
<rect width="23" height="24" fill="white"/>
</clipPath>
</defs>
</svg>
