<svg width="25" height="25" viewBox="0 0 25 25" fill="none" xmlns="http://www.w3.org/2000/svg">
<g clip-path="url(#clip0_642_2173)">
<path d="M12.5 25C19.4036 25 25 19.4036 25 12.5C25 5.59644 19.4036 0 12.5 0C5.59644 0 0 5.59644 0 12.5C0 19.4036 5.59644 25 12.5 25Z" fill="#B6B6B7"/>
<path d="M7.71495 19.2894C7.44542 19.2894 7.17589 19.1957 6.95323 19.0082C6.46104 18.5902 6.40245 17.848 6.82042 17.3558L16.3907 6.12144C16.8087 5.62926 17.5509 5.57066 18.0431 5.98863C18.5353 6.4066 18.5939 7.14879 18.1759 7.64097L8.60557 18.8753C8.37511 19.1488 8.04307 19.2894 7.71104 19.2894H7.71495Z" fill="white"/>
<path d="M17.2852 19.29C16.9531 19.29 16.625 19.1494 16.3906 18.876L6.82031 7.64551C6.39844 7.15332 6.46094 6.41113 6.95312 5.99316C7.44531 5.57129 8.1875 5.63379 8.60547 6.12597L18.1758 17.3603C18.5977 17.8525 18.5352 18.5947 18.043 19.0127C17.8242 19.2002 17.5508 19.2939 17.2812 19.2939L17.2852 19.29Z" fill="white"/>
</g>
<defs>
<clipPath id="clip0_642_2173">
<rect width="25" height="25" fill="white"/>
</clipPath>
</defs>
</svg>
