<svg width="90" height="90" viewBox="0 0 90 90" fill="none" xmlns="http://www.w3.org/2000/svg">
<path d="M88.5085 39.7778L82.4569 33.9377L84.0448 24.9815C84.4852 22.4967 82.9506 20.0915 80.5086 19.4271L72.3753 17.2213L69.4262 8.61066C68.6123 6.22545 66.1035 4.85014 63.6415 5.44146L55.4482 7.40809L48.696 1.27565C46.8278 -0.425218 43.9655 -0.425218 42.0906 1.27565L31.889 10.5441L21.6273 8.59737C19.1386 8.12565 16.7033 9.62055 16.0027 12.039L12.9002 22.7691L4.12638 27.7056C1.92458 28.948 1.03052 31.6588 2.07137 33.9576L5.52752 41.6115L0.730275 49.3518C-0.597474 51.4979 -0.0703776 54.3016 1.95127 55.8165L8.68342 60.8593L8.22305 69.9417C8.09628 72.4598 9.91776 74.6589 12.4198 75.0177L20.7599 76.207L24.7565 84.3858C25.8641 86.6514 28.5263 87.7078 30.8949 86.8175L38.7813 83.8543L46.2407 89.1031C48.309 90.5581 51.1514 90.206 52.7927 88.2858L58.2705 81.9076L67.3446 82.9308C69.8599 83.2165 72.1818 81.5422 72.6956 79.0706L74.4036 70.8519L82.8505 67.3904C85.1924 66.4336 86.4134 63.8491 85.6661 61.444L83.1841 53.4246L88.9088 46.3355C90.4967 44.3688 90.3166 41.5252 88.5018 39.7712L88.5085 39.7778Z" fill="#FDB000"/>
</svg>
