<svg width="23" height="23" viewBox="0 0 23 23" fill="none" xmlns="http://www.w3.org/2000/svg">
<g clip-path="url(#clip0_762_5065)">
<path d="M11.5 23C17.8513 23 23 17.8513 23 11.5C23 5.14873 17.8513 0 11.5 0C5.14873 0 0 5.14873 0 11.5C0 17.8513 5.14873 23 11.5 23Z" fill="#FDB000"/>
<path d="M6.33203 8.06633C6.33203 7.3951 6.54795 6.71215 6.97979 6.02215C7.41162 5.33215 8.0406 4.76184 8.86907 4.30888C9.69754 3.85592 10.6621 3.63062 11.7652 3.63062C12.7908 3.63062 13.6967 3.82072 14.483 4.19857C15.2692 4.57643 15.8747 5.09276 16.3018 5.74286C16.729 6.39296 16.9449 7.10174 16.9449 7.86449C16.9449 8.46531 16.8228 8.99337 16.5788 9.44633C16.3347 9.89929 16.0437 10.2889 15.7081 10.6198C15.3724 10.9484 14.7693 11.5022 13.8986 12.2814C13.6592 12.4997 13.4644 12.6945 13.3212 12.8588C13.1757 13.0254 13.0677 13.178 12.9973 13.3141C12.9269 13.4526 12.8706 13.5887 12.8331 13.7271C12.7932 13.8656 12.7345 14.1073 12.657 14.4547C12.5233 15.1916 12.1008 15.5578 11.3944 15.5578C11.0259 15.5578 10.7161 15.4381 10.465 15.1963C10.2139 14.9569 10.0895 14.5979 10.0895 14.1238C10.0895 13.53 10.181 13.0137 10.3664 12.5795C10.5495 12.1453 10.7936 11.7628 11.0987 11.4342C11.4038 11.1056 11.8121 10.7137 12.3308 10.2607C12.7838 9.86408 13.11 9.56602 13.3118 9.36419C13.5137 9.16235 13.6826 8.93704 13.8211 8.69061C13.9596 8.44184 14.0276 8.17429 14.0276 7.88327C14.0276 7.31766 13.8164 6.83888 13.3963 6.45164C12.9762 6.06204 12.4317 5.86725 11.7675 5.86725C10.9884 5.86725 10.4157 6.06439 10.0472 6.45633C9.67877 6.84827 9.36897 7.42796 9.11315 8.19072C8.87142 8.99102 8.41611 9.39 7.74489 9.39C7.34826 9.39 7.01499 9.24919 6.74275 8.9699C6.4705 8.69062 6.33438 8.38786 6.33438 8.06164L6.33203 8.06633ZM11.5117 19.6978C11.0799 19.6978 10.7044 19.5569 10.3805 19.2777C10.059 18.9984 9.89703 18.6064 9.89703 18.1042C9.89703 17.6583 10.0519 17.2828 10.3641 16.98C10.6762 16.6749 11.0564 16.5247 11.5094 16.5247C11.9623 16.5247 12.3308 16.6772 12.6336 16.98C12.9387 17.2851 13.0889 17.6583 13.0889 18.1042C13.0889 18.5994 12.9293 18.989 12.6124 19.2706C12.2956 19.5522 11.9271 19.6954 11.5094 19.6954L11.5117 19.6978Z" fill="white"/>
</g>
<defs>
<clipPath id="clip0_762_5065">
<rect width="23" height="23" fill="white"/>
</clipPath>
</defs>
</svg>
